<?xml version="1.0" encoding="utf-8"?>
<!-- Generator: Adobe Illustrator 16.0.3, SVG Export Plug-In . SVG Version: 6.00 Build 0)  -->
<!DOCTYPE svg PUBLIC "-//W3C//DTD SVG 1.1//EN" "http://www.w3.org/Graphics/SVG/1.1/DTD/svg11.dtd">
<svg version="1.1" id="Layer_1" xmlns="http://www.w3.org/2000/svg" xmlns:xlink="http://www.w3.org/1999/xlink" x="0px" y="0px"
	 width="420px" height="420px" viewBox="0 0 420 420" enable-background="new 0 0 420 420" xml:space="preserve">
<g>
	<path d="M209.998,420C94.204,420,0,325.792,0,209.998C0,94.205,94.204,0,209.998,0C325.792,0,420,94.205,420,209.998
		C420,325.792,325.792,420,209.998,420z M209.998,17.936c-105.907,0-192.062,86.156-192.062,192.063
		c0,105.906,86.159,192.065,192.062,192.065c105.907,0,192.066-86.159,192.066-192.065
		C402.064,104.092,315.905,17.936,209.998,17.936z"/>
	<circle cx="209.998" cy="209.999" r="62.027"/>
	<path d="M329.72,175.736c-9.421-0.761-13.874,18.779-29.541,16.067c-11.246-1.946-14.779-8.255-15.882-11.677
		c-4.224-17.904,2.367-9.277,14.192-28.747c12.411-20.442,5.52-26.366,8.829-33.993c3.309-7.601,39.082-12.542,39.082-12.542
		c-43.701-10.798-68.761-9.847-75.972-3.736c-7.197,6.121,3.466,23.084-9.524,32.25c-9.299,6.556-16.25,4.623-19.465,2.991
		c-15.676-9.694-4.905-8.242-10.317-30.375c-5.682-23.236-14.744-22.554-17.788-30.276c-3.04-7.722,18.77-36.513,18.77-36.513
		c-38.553,23.267-55.587,41.665-56.364,51.085c-0.775,9.421,18.779,13.874,16.066,29.536c-1.933,11.161-8.169,14.73-11.604,15.865
		c-17.999,4.251-9.327-2.336-28.819-14.174c-20.442-12.416-26.37-5.52-33.984-8.829c-7.605-3.31-12.546-39.086-12.546-39.086
		c-10.806,43.714-9.842,68.77-3.73,75.98c6.111,7.206,23.083-3.466,32.245,9.524c6.533,9.268,4.631,16.21,3.004,19.438
		c-9.712,15.716-8.25,4.932-30.393,10.344c-23.236,5.677-22.554,14.744-30.275,17.788c-7.722,3.036-36.513-18.77-36.513-18.77
		c23.267,38.549,41.666,55.587,51.086,56.364c9.425,0.771,13.874-18.779,29.541-16.066c11.214,1.941,14.761,8.228,15.877,11.658
		c4.233,17.932-2.367,9.291-14.187,28.765c-12.416,20.447-5.52,26.375-8.829,33.988c-3.309,7.605-39.087,12.547-39.087,12.547
		c43.71,10.802,68.766,9.842,75.972,3.735c7.206-6.121-3.466-23.084,9.528-32.249c9.291-6.551,16.245-4.623,19.46-2.99
		c15.685,9.689,4.91,8.245,10.318,30.378c5.681,23.232,14.748,22.55,17.797,30.276c3.035,7.717-18.771,36.504-18.771,36.504
		c38.544-23.263,55.583-41.661,56.36-51.077c0.766-9.426-18.779-13.874-16.066-29.545c1.946-11.25,8.263-14.778,11.681-15.886
		c17.896-4.216,9.272,2.376,28.738,14.199c20.442,12.412,26.374,5.516,33.993,8.824c7.6,3.31,12.542,39.083,12.542,39.083
		c10.798-43.701,9.842-68.761,3.735-75.967c-6.121-7.202-23.083,3.466-32.249-9.529c-6.569-9.313-4.609-16.276-2.977-19.483
		c9.675-15.653,8.237-4.891,30.365-10.294c23.231-5.682,22.545-14.744,30.276-17.797c7.717-3.036,36.504,18.77,36.504,18.77
		C357.534,193.56,339.141,176.512,329.72,175.736z M260.998,260.995c-9.806,9.802-21.729,16.097-34.293,19.083
		c-0.026,0.032-0.049,0.063-0.076,0.094c-5.336,1.265-10.905,1.951-16.626,1.951c-13.865,0-26.748-3.978-37.743-10.753
		c-0.04,0.005-0.08,0.009-0.12,0.014c-4.673-2.884-9.085-6.332-13.134-10.38c-9.802-9.803-16.102-21.725-19.084-34.284
		c-0.032-0.027-0.067-0.054-0.094-0.076c-1.265-5.341-1.946-10.905-1.946-16.636c0-13.851,3.977-26.742,10.743-37.737
		c-0.004-0.035-0.009-0.076-0.013-0.111c2.878-4.673,6.336-9.094,10.389-13.147c9.793-9.798,21.72-16.102,34.28-19.083
		c0.022-0.028,0.045-0.059,0.071-0.09c5.341-1.269,10.914-1.951,16.645-1.951c13.856,0,26.747,3.973,37.732,10.744
		c0.04-0.005,0.081-0.009,0.112-0.014c4.677,2.883,9.093,6.336,13.151,10.385c9.802,9.807,16.092,21.729,19.083,34.293
		c0.031,0.022,0.064,0.05,0.095,0.076c1.269,5.341,1.95,10.905,1.955,16.627c-0.005,13.86-3.986,26.743-10.757,37.742
		c0.005,0.04,0.01,0.08,0.014,0.116C268.496,252.529,265.042,256.946,260.998,260.995z"/>
</g>
</svg>
